<mxfile host="Electron" agent="Mozilla/5.0 (Macintosh; Intel Mac OS X 10_15_7) AppleWebKit/537.36 (KHTML, like Gecko) draw.io/26.0.4 Chrome/128.0.6613.186 Electron/32.2.5 Safari/537.36" version="26.0.4">
  <diagram id="C5RBs43oDa-KdzZeNtuy" name="Page-1">
    <mxGraphModel dx="1625" dy="771" grid="1" gridSize="10" guides="1" tooltips="1" connect="1" arrows="1" fold="1" page="1" pageScale="1" pageWidth="827" pageHeight="1169" math="0" shadow="0">
      <root>
        <mxCell id="WIyWlLk6GJQsqaUBKTNV-0" />
        <mxCell id="WIyWlLk6GJQsqaUBKTNV-1" parent="WIyWlLk6GJQsqaUBKTNV-0" />
        <mxCell id="Al6rPSk5GkYOEkyyNQ2s-3" value="" style="edgeStyle=orthogonalEdgeStyle;rounded=0;orthogonalLoop=1;jettySize=auto;html=1;" edge="1" parent="WIyWlLk6GJQsqaUBKTNV-1" source="WIyWlLk6GJQsqaUBKTNV-3" target="WIyWlLk6GJQsqaUBKTNV-7">
          <mxGeometry relative="1" as="geometry" />
        </mxCell>
        <mxCell id="WIyWlLk6GJQsqaUBKTNV-3" value="Initialize Population" style="rounded=1;whiteSpace=wrap;html=1;fontSize=12;glass=0;strokeWidth=1;shadow=0;" parent="WIyWlLk6GJQsqaUBKTNV-1" vertex="1">
          <mxGeometry x="155" y="70" width="120" height="40" as="geometry" />
        </mxCell>
        <mxCell id="Al6rPSk5GkYOEkyyNQ2s-6" style="edgeStyle=orthogonalEdgeStyle;rounded=0;orthogonalLoop=1;jettySize=auto;html=1;entryX=0.5;entryY=1;entryDx=0;entryDy=0;" edge="1" parent="WIyWlLk6GJQsqaUBKTNV-1" source="WIyWlLk6GJQsqaUBKTNV-6" target="Al6rPSk5GkYOEkyyNQ2s-5">
          <mxGeometry relative="1" as="geometry" />
        </mxCell>
        <mxCell id="Al6rPSk5GkYOEkyyNQ2s-7" value="No" style="edgeLabel;html=1;align=center;verticalAlign=middle;resizable=0;points=[];" vertex="1" connectable="0" parent="Al6rPSk5GkYOEkyyNQ2s-6">
          <mxGeometry x="-0.3524" relative="1" as="geometry">
            <mxPoint x="-47" y="-15" as="offset" />
          </mxGeometry>
        </mxCell>
        <mxCell id="Al6rPSk5GkYOEkyyNQ2s-9" style="edgeStyle=orthogonalEdgeStyle;rounded=0;orthogonalLoop=1;jettySize=auto;html=1;entryX=0.5;entryY=0;entryDx=0;entryDy=0;" edge="1" parent="WIyWlLk6GJQsqaUBKTNV-1" source="WIyWlLk6GJQsqaUBKTNV-6" target="WIyWlLk6GJQsqaUBKTNV-11">
          <mxGeometry relative="1" as="geometry" />
        </mxCell>
        <mxCell id="Al6rPSk5GkYOEkyyNQ2s-10" value="Yes" style="edgeLabel;html=1;align=center;verticalAlign=middle;resizable=0;points=[];" vertex="1" connectable="0" parent="Al6rPSk5GkYOEkyyNQ2s-9">
          <mxGeometry x="-0.3667" relative="1" as="geometry">
            <mxPoint x="15" y="1" as="offset" />
          </mxGeometry>
        </mxCell>
        <mxCell id="WIyWlLk6GJQsqaUBKTNV-6" value="Are the&lt;div&gt;any valid paths&lt;/div&gt;&lt;div&gt;to specified base&lt;/div&gt;&lt;div&gt;station?&lt;/div&gt;" style="rhombus;whiteSpace=wrap;html=1;shadow=0;fontFamily=Helvetica;fontSize=12;align=center;strokeWidth=1;spacing=6;spacingTop=-4;" parent="WIyWlLk6GJQsqaUBKTNV-1" vertex="1">
          <mxGeometry x="155" y="320" width="120" height="130" as="geometry" />
        </mxCell>
        <mxCell id="Al6rPSk5GkYOEkyyNQ2s-2" value="" style="edgeStyle=orthogonalEdgeStyle;rounded=0;orthogonalLoop=1;jettySize=auto;html=1;" edge="1" parent="WIyWlLk6GJQsqaUBKTNV-1" source="WIyWlLk6GJQsqaUBKTNV-7" target="WIyWlLk6GJQsqaUBKTNV-12">
          <mxGeometry relative="1" as="geometry" />
        </mxCell>
        <mxCell id="WIyWlLk6GJQsqaUBKTNV-7" value="Compute Fitness Function" style="rounded=1;whiteSpace=wrap;html=1;fontSize=12;glass=0;strokeWidth=1;shadow=0;" parent="WIyWlLk6GJQsqaUBKTNV-1" vertex="1">
          <mxGeometry x="130" y="150" width="170" height="40" as="geometry" />
        </mxCell>
        <mxCell id="Al6rPSk5GkYOEkyyNQ2s-12" value="" style="edgeStyle=orthogonalEdgeStyle;rounded=0;orthogonalLoop=1;jettySize=auto;html=1;entryX=0.5;entryY=0;entryDx=0;entryDy=0;" edge="1" parent="WIyWlLk6GJQsqaUBKTNV-1" source="WIyWlLk6GJQsqaUBKTNV-11" target="Al6rPSk5GkYOEkyyNQ2s-15">
          <mxGeometry relative="1" as="geometry">
            <mxPoint x="215" y="610" as="targetPoint" />
          </mxGeometry>
        </mxCell>
        <mxCell id="WIyWlLk6GJQsqaUBKTNV-11" value="Run tournament selection" style="rounded=1;whiteSpace=wrap;html=1;fontSize=12;glass=0;strokeWidth=1;shadow=0;" parent="WIyWlLk6GJQsqaUBKTNV-1" vertex="1">
          <mxGeometry x="155" y="510" width="120" height="40" as="geometry" />
        </mxCell>
        <mxCell id="Al6rPSk5GkYOEkyyNQ2s-4" value="" style="edgeStyle=orthogonalEdgeStyle;rounded=0;orthogonalLoop=1;jettySize=auto;html=1;" edge="1" parent="WIyWlLk6GJQsqaUBKTNV-1" source="WIyWlLk6GJQsqaUBKTNV-12" target="WIyWlLk6GJQsqaUBKTNV-6">
          <mxGeometry relative="1" as="geometry" />
        </mxCell>
        <mxCell id="WIyWlLk6GJQsqaUBKTNV-12" value="Filter out invalid routes" style="rounded=1;whiteSpace=wrap;html=1;fontSize=12;glass=0;strokeWidth=1;shadow=0;" parent="WIyWlLk6GJQsqaUBKTNV-1" vertex="1">
          <mxGeometry x="147.5" y="240" width="135" height="40" as="geometry" />
        </mxCell>
        <mxCell id="Al6rPSk5GkYOEkyyNQ2s-1" value="" style="edgeStyle=orthogonalEdgeStyle;rounded=0;orthogonalLoop=1;jettySize=auto;html=1;" edge="1" parent="WIyWlLk6GJQsqaUBKTNV-1" source="Al6rPSk5GkYOEkyyNQ2s-0" target="WIyWlLk6GJQsqaUBKTNV-3">
          <mxGeometry relative="1" as="geometry" />
        </mxCell>
        <mxCell id="Al6rPSk5GkYOEkyyNQ2s-0" value="Start" style="ellipse;whiteSpace=wrap;html=1;" vertex="1" parent="WIyWlLk6GJQsqaUBKTNV-1">
          <mxGeometry x="180" width="70" height="40" as="geometry" />
        </mxCell>
        <mxCell id="Al6rPSk5GkYOEkyyNQ2s-8" style="edgeStyle=orthogonalEdgeStyle;rounded=0;orthogonalLoop=1;jettySize=auto;html=1;entryX=0;entryY=0.5;entryDx=0;entryDy=0;exitX=0.5;exitY=0;exitDx=0;exitDy=0;" edge="1" parent="WIyWlLk6GJQsqaUBKTNV-1" source="Al6rPSk5GkYOEkyyNQ2s-5" target="WIyWlLk6GJQsqaUBKTNV-3">
          <mxGeometry relative="1" as="geometry" />
        </mxCell>
        <mxCell id="Al6rPSk5GkYOEkyyNQ2s-5" value="Reset destination to&lt;div&gt;alternative base station&lt;/div&gt;" style="rounded=1;whiteSpace=wrap;html=1;" vertex="1" parent="WIyWlLk6GJQsqaUBKTNV-1">
          <mxGeometry x="-30" y="240" width="120" height="60" as="geometry" />
        </mxCell>
        <mxCell id="Al6rPSk5GkYOEkyyNQ2s-14" style="edgeStyle=orthogonalEdgeStyle;rounded=0;orthogonalLoop=1;jettySize=auto;html=1;entryX=0.5;entryY=0;entryDx=0;entryDy=0;" edge="1" parent="WIyWlLk6GJQsqaUBKTNV-1">
          <mxGeometry relative="1" as="geometry">
            <mxPoint x="150" y="630" as="sourcePoint" />
            <mxPoint x="150" y="630" as="targetPoint" />
          </mxGeometry>
        </mxCell>
        <mxCell id="Al6rPSk5GkYOEkyyNQ2s-17" style="edgeStyle=orthogonalEdgeStyle;rounded=0;orthogonalLoop=1;jettySize=auto;html=1;" edge="1" parent="WIyWlLk6GJQsqaUBKTNV-1" source="Al6rPSk5GkYOEkyyNQ2s-15" target="Al6rPSk5GkYOEkyyNQ2s-16">
          <mxGeometry relative="1" as="geometry" />
        </mxCell>
        <mxCell id="Al6rPSk5GkYOEkyyNQ2s-18" value="No" style="edgeLabel;html=1;align=center;verticalAlign=middle;resizable=0;points=[];" vertex="1" connectable="0" parent="Al6rPSk5GkYOEkyyNQ2s-17">
          <mxGeometry x="-0.561" y="3" relative="1" as="geometry">
            <mxPoint x="46" y="18" as="offset" />
          </mxGeometry>
        </mxCell>
        <mxCell id="Al6rPSk5GkYOEkyyNQ2s-20" style="edgeStyle=orthogonalEdgeStyle;rounded=0;orthogonalLoop=1;jettySize=auto;html=1;entryX=0.5;entryY=0;entryDx=0;entryDy=0;" edge="1" parent="WIyWlLk6GJQsqaUBKTNV-1" source="Al6rPSk5GkYOEkyyNQ2s-15" target="Al6rPSk5GkYOEkyyNQ2s-19">
          <mxGeometry relative="1" as="geometry" />
        </mxCell>
        <mxCell id="Al6rPSk5GkYOEkyyNQ2s-23" value="Yes" style="edgeLabel;html=1;align=center;verticalAlign=middle;resizable=0;points=[];" vertex="1" connectable="0" parent="Al6rPSk5GkYOEkyyNQ2s-20">
          <mxGeometry x="-0.4333" y="3" relative="1" as="geometry">
            <mxPoint x="12" y="3" as="offset" />
          </mxGeometry>
        </mxCell>
        <mxCell id="Al6rPSk5GkYOEkyyNQ2s-15" value="Are the best solutions &amp;gt; 1?" style="rhombus;whiteSpace=wrap;html=1;" vertex="1" parent="WIyWlLk6GJQsqaUBKTNV-1">
          <mxGeometry x="157.5" y="600" width="115" height="130" as="geometry" />
        </mxCell>
        <mxCell id="Al6rPSk5GkYOEkyyNQ2s-16" value="End" style="ellipse;whiteSpace=wrap;html=1;" vertex="1" parent="WIyWlLk6GJQsqaUBKTNV-1">
          <mxGeometry x="-20" y="1120" width="80" height="50" as="geometry" />
        </mxCell>
        <mxCell id="Al6rPSk5GkYOEkyyNQ2s-22" value="" style="edgeStyle=orthogonalEdgeStyle;rounded=0;orthogonalLoop=1;jettySize=auto;html=1;" edge="1" parent="WIyWlLk6GJQsqaUBKTNV-1" source="Al6rPSk5GkYOEkyyNQ2s-19" target="Al6rPSk5GkYOEkyyNQ2s-21">
          <mxGeometry relative="1" as="geometry" />
        </mxCell>
        <mxCell id="Al6rPSk5GkYOEkyyNQ2s-19" value="Pair chromosomes for crossover" style="rounded=1;whiteSpace=wrap;html=1;" vertex="1" parent="WIyWlLk6GJQsqaUBKTNV-1">
          <mxGeometry x="162.5" y="790" width="105" height="40" as="geometry" />
        </mxCell>
        <mxCell id="Al6rPSk5GkYOEkyyNQ2s-25" value="" style="edgeStyle=orthogonalEdgeStyle;rounded=0;orthogonalLoop=1;jettySize=auto;html=1;" edge="1" parent="WIyWlLk6GJQsqaUBKTNV-1" source="Al6rPSk5GkYOEkyyNQ2s-21" target="Al6rPSk5GkYOEkyyNQ2s-24">
          <mxGeometry relative="1" as="geometry" />
        </mxCell>
        <mxCell id="Al6rPSk5GkYOEkyyNQ2s-21" value="Perform crossover" style="rounded=1;whiteSpace=wrap;html=1;" vertex="1" parent="WIyWlLk6GJQsqaUBKTNV-1">
          <mxGeometry x="162.5" y="890" width="105" height="40" as="geometry" />
        </mxCell>
        <mxCell id="Al6rPSk5GkYOEkyyNQ2s-27" value="" style="edgeStyle=orthogonalEdgeStyle;rounded=0;orthogonalLoop=1;jettySize=auto;html=1;" edge="1" parent="WIyWlLk6GJQsqaUBKTNV-1" source="Al6rPSk5GkYOEkyyNQ2s-24" target="Al6rPSk5GkYOEkyyNQ2s-26">
          <mxGeometry relative="1" as="geometry" />
        </mxCell>
        <mxCell id="Al6rPSk5GkYOEkyyNQ2s-24" value="Perform Mutation" style="rounded=1;whiteSpace=wrap;html=1;" vertex="1" parent="WIyWlLk6GJQsqaUBKTNV-1">
          <mxGeometry x="163.75" y="990" width="102.5" height="40" as="geometry" />
        </mxCell>
        <mxCell id="Al6rPSk5GkYOEkyyNQ2s-28" style="edgeStyle=orthogonalEdgeStyle;rounded=0;orthogonalLoop=1;jettySize=auto;html=1;entryX=1;entryY=0.5;entryDx=0;entryDy=0;" edge="1" parent="WIyWlLk6GJQsqaUBKTNV-1" source="Al6rPSk5GkYOEkyyNQ2s-26" target="Al6rPSk5GkYOEkyyNQ2s-16">
          <mxGeometry relative="1" as="geometry" />
        </mxCell>
        <mxCell id="Al6rPSk5GkYOEkyyNQ2s-31" value="Yes" style="edgeLabel;html=1;align=center;verticalAlign=middle;resizable=0;points=[];" vertex="1" connectable="0" parent="Al6rPSk5GkYOEkyyNQ2s-28">
          <mxGeometry x="-0.3333" y="-2" relative="1" as="geometry">
            <mxPoint x="-14" y="-13" as="offset" />
          </mxGeometry>
        </mxCell>
        <mxCell id="Al6rPSk5GkYOEkyyNQ2s-29" style="edgeStyle=orthogonalEdgeStyle;rounded=0;orthogonalLoop=1;jettySize=auto;html=1;entryX=1;entryY=0.5;entryDx=0;entryDy=0;" edge="1" parent="WIyWlLk6GJQsqaUBKTNV-1" source="Al6rPSk5GkYOEkyyNQ2s-26" target="WIyWlLk6GJQsqaUBKTNV-7">
          <mxGeometry relative="1" as="geometry">
            <Array as="points">
              <mxPoint x="360" y="1145" />
              <mxPoint x="360" y="170" />
            </Array>
          </mxGeometry>
        </mxCell>
        <mxCell id="Al6rPSk5GkYOEkyyNQ2s-30" value="No" style="edgeLabel;html=1;align=center;verticalAlign=middle;resizable=0;points=[];" vertex="1" connectable="0" parent="Al6rPSk5GkYOEkyyNQ2s-29">
          <mxGeometry x="-0.9403" relative="1" as="geometry">
            <mxPoint x="14" y="-15" as="offset" />
          </mxGeometry>
        </mxCell>
        <mxCell id="Al6rPSk5GkYOEkyyNQ2s-26" value="Have&lt;div&gt;we reached&lt;/div&gt;&lt;div&gt;the maximum number of&lt;/div&gt;&lt;div&gt;generations&lt;/div&gt;&lt;div&gt;?&lt;/div&gt;" style="rhombus;whiteSpace=wrap;html=1;" vertex="1" parent="WIyWlLk6GJQsqaUBKTNV-1">
          <mxGeometry x="157.5" y="1080" width="115" height="130" as="geometry" />
        </mxCell>
      </root>
    </mxGraphModel>
  </diagram>
</mxfile>
